<svg version="1.1" id="Layer_1" xmlns="http://www.w3.org/2000/svg" xmlns:xlink="http://www.w3.org/1999/xlink" x="0px" y="0px"
	 width="100%" viewBox="0 0 980 980" enable-background="new 0 0 980 980" xml:space="preserve">
<path fill="#F47025" opacity="1.000000" stroke="none" 
	d="
M890.000000,981.000000 
	C593.333313,981.000000 297.166656,981.000000 1.000000,981.000000 
	C1.000000,654.333313 1.000000,327.666656 1.000000,1.000000 
	C327.666656,1.000000 654.333313,1.000000 981.000000,1.000000 
	C981.000000,327.666656 981.000000,654.333313 981.000000,981.000000 
	C950.833313,981.000000 920.666687,981.000000 890.000000,981.000000 
M332.460785,499.398224 
	C273.289062,484.851410 216.756866,463.496338 163.425552,433.879669 
	C159.065353,431.458313 154.744736,428.946106 150.263275,426.769379 
	C147.128845,425.246918 143.367569,425.379974 142.018646,428.748383 
	C141.125381,430.979034 142.456772,434.213196 143.148590,436.906616 
	C143.400284,437.886505 144.617340,438.681549 145.507721,439.424561 
	C154.327896,446.784668 162.981171,454.361206 172.042084,461.413422 
	C212.532990,492.927979 256.736481,517.863342 304.712738,536.160828 
	C352.866791,554.526062 402.694427,565.158264 454.023743,568.746399 
	C503.032715,572.172241 551.556458,568.351990 599.562500,557.898193 
	C651.854614,546.511230 701.626953,528.549988 747.553040,500.753357 
	C757.216309,494.904663 766.385498,488.218018 775.601257,481.662842 
	C779.159119,479.132111 780.205994,475.241882 778.995117,470.955536 
	C777.727905,466.469543 774.315552,464.399200 770.033691,464.346619 
	C766.961792,464.308838 763.655151,464.852325 760.830627,466.036499 
	C730.050781,478.940186 698.454468,489.361511 666.147217,497.676788 
	C619.530701,509.675018 572.174011,516.847534 524.087036,518.773804 
	C459.602234,521.356812 396.008453,514.579041 332.460785,499.398224 
M796.489990,412.094818 
	C780.923706,411.782776 765.543274,413.224609 750.469910,417.233917 
	C737.187439,420.766846 724.432251,425.628174 713.534668,434.224945 
	C711.716003,435.659607 711.375183,438.967712 710.351440,441.410126 
	C712.713013,442.170044 715.136719,443.733154 717.425720,443.555847 
	C729.704529,442.604645 741.927673,440.585449 754.212585,440.159180 
	C767.145142,439.710388 780.205017,439.869781 793.062317,441.191772 
	C805.309692,442.450928 808.442932,447.083527 808.097473,459.185516 
	C808.002808,462.501495 807.857849,465.917267 807.007935,469.092377 
	C803.912537,480.656372 800.849426,492.249603 797.120361,503.617340 
	C793.751221,513.888123 789.386292,523.829041 785.809692,534.037781 
	C785.162659,535.884705 785.502136,539.555237 786.630737,540.197754 
	C788.297119,541.146423 791.250305,540.597168 793.335876,539.823792 
	C795.262329,539.109558 796.926941,537.417236 798.435364,535.887878 
	C827.011658,506.915466 840.398071,471.680969 840.983032,431.363281 
	C841.114380,422.308624 838.449707,418.877777 829.480164,416.982361 
	C818.942139,414.755493 808.160461,413.681244 796.489990,412.094818 
z"/>
<path fill="#FEFCF9" opacity="1.000000" stroke="none" 
	d="
M332.860565,499.507874 
	C396.008453,514.579041 459.602234,521.356812 524.087036,518.773804 
	C572.174011,516.847534 619.530701,509.675018 666.147217,497.676788 
	C698.454468,489.361511 730.050781,478.940186 760.830627,466.036499 
	C763.655151,464.852325 766.961792,464.308838 770.033691,464.346619 
	C774.315552,464.399200 777.727905,466.469543 778.995117,470.955536 
	C780.205994,475.241882 779.159119,479.132111 775.601257,481.662842 
	C766.385498,488.218018 757.216309,494.904663 747.553040,500.753357 
	C701.626953,528.549988 651.854614,546.511230 599.562500,557.898193 
	C551.556458,568.351990 503.032715,572.172241 454.023743,568.746399 
	C402.694427,565.158264 352.866791,554.526062 304.712738,536.160828 
	C256.736481,517.863342 212.532990,492.927979 172.042084,461.413422 
	C162.981171,454.361206 154.327896,446.784668 145.507721,439.424561 
	C144.617340,438.681549 143.400284,437.886505 143.148590,436.906616 
	C142.456772,434.213196 141.125381,430.979034 142.018646,428.748383 
	C143.367569,425.379974 147.128845,425.246918 150.263275,426.769379 
	C154.744736,428.946106 159.065353,431.458313 163.425552,433.879669 
	C216.756866,463.496338 273.289062,484.851410 332.860565,499.507874 
z"/>
<path fill="#FDFBF6" opacity="1.000000" stroke="none" 
	d="
M796.987244,412.100983 
	C808.160461,413.681244 818.942139,414.755493 829.480164,416.982361 
	C838.449707,418.877777 841.114380,422.308624 840.983032,431.363281 
	C840.398071,471.680969 827.011658,506.915466 798.435364,535.887878 
	C796.926941,537.417236 795.262329,539.109558 793.335876,539.823792 
	C791.250305,540.597168 788.297119,541.146423 786.630737,540.197754 
	C785.502136,539.555237 785.162659,535.884705 785.809692,534.037781 
	C789.386292,523.829041 793.751221,513.888123 797.120361,503.617340 
	C800.849426,492.249603 803.912537,480.656372 807.007935,469.092377 
	C807.857849,465.917267 808.002808,462.501495 808.097473,459.185516 
	C808.442932,447.083527 805.309692,442.450928 793.062317,441.191772 
	C780.205017,439.869781 767.145142,439.710388 754.212585,440.159180 
	C741.927673,440.585449 729.704529,442.604645 717.425720,443.555847 
	C715.136719,443.733154 712.713013,442.170044 710.351440,441.410126 
	C711.375183,438.967712 711.716003,435.659607 713.534668,434.224945 
	C724.432251,425.628174 737.187439,420.766846 750.469910,417.233917 
	C765.543274,413.224609 780.923706,411.782776 796.987244,412.100983 
z"/>
</svg>